<?xml version="1.0" encoding="UTF-8"?>
<svg version="1.1" xmlns="http://www.w3.org/2000/svg" width="504" height="504">
<path d="M0 0 C1.74573334 -0.00300442 3.49146602 -0.0064098 5.23719788 -0.01017761 C9.91563537 -0.01889429 14.59405449 -0.02135051 19.27249932 -0.0219934 C22.21566148 -0.02271129 25.15881918 -0.0248594 28.10198021 -0.02749062 C38.42769026 -0.03670524 48.75338753 -0.04083065 59.07910156 -0.04003906 C68.6094545 -0.03944022 78.1397505 -0.04996405 87.67008907 -0.06578273 C95.92908527 -0.07898836 104.18806318 -0.08421754 112.44706982 -0.08358365 C117.34554031 -0.08333233 122.24396012 -0.08597515 127.14241982 -0.0967617 C212.7545812 -0.27211107 212.7545812 -0.27211107 250.5144043 18.14526367 C251.50698242 18.62737305 252.49956055 19.10948242 253.5222168 19.60620117 C282.20567932 34.3973884 304.10278005 61.76970959 314.24487305 92.14916992 C323.27280408 120.65498476 324.67013118 149.93027668 324.65966797 179.63085938 C324.66267238 181.37659271 324.66607777 183.1223254 324.66984558 184.86805725 C324.67856226 189.54649474 324.68101848 194.22491387 324.68166137 198.9033587 C324.68237926 201.84652085 324.68452736 204.78967855 324.68715858 207.73283958 C324.69637321 218.05854964 324.70049861 228.38424691 324.69970703 238.70996094 C324.69910819 248.24031388 324.70963202 257.77060987 324.72545069 267.30094844 C324.73865633 275.55994465 324.74388551 283.81892255 324.74325162 292.0779292 C324.7430003 296.97639969 324.74564312 301.8748195 324.75642967 306.77327919 C324.93177904 392.38544057 324.93177904 392.38544057 306.5144043 430.14526367 C306.03229492 431.1378418 305.55018555 432.13041992 305.0534668 433.15307617 C290.26227957 461.8365387 262.88995838 483.73363942 232.51049805 493.87573242 C204.00468321 502.90366346 174.72939129 504.30099055 145.02880859 504.29052734 C143.28307526 504.29353176 141.53734257 504.29693715 139.79161072 504.30070496 C135.11317323 504.30942163 130.4347541 504.31187786 125.75630927 504.31252074 C122.81314711 504.31323864 119.86998942 504.31538674 116.92682838 504.31801796 C106.60111833 504.32723258 96.27542106 504.33135799 85.94970703 504.33056641 C76.41935409 504.32996757 66.8890581 504.3404914 57.35871953 504.35631007 C49.09972332 504.3695157 40.84074542 504.37474488 32.58173877 504.374111 C27.68326828 504.37385968 22.78484847 504.37650249 17.88638878 504.38728905 C-67.7257726 504.56263841 -67.7257726 504.56263841 -105.4855957 486.14526367 C-106.97446289 485.42209961 -106.97446289 485.42209961 -108.4934082 484.68432617 C-137.17687073 469.89313894 -159.07397145 442.52081775 -169.21606445 412.14135742 C-178.24399549 383.63554259 -179.64132258 354.36025067 -179.63085938 324.65966797 C-179.63386379 322.91393463 -179.63726918 321.16820195 -179.64103699 319.42247009 C-179.64975366 314.7440326 -179.65220989 310.06561348 -179.65285277 305.38716865 C-179.65357067 302.44400649 -179.65571877 299.50084879 -179.65834999 296.55768776 C-179.66756461 286.23197771 -179.67169002 275.90628044 -179.67089844 265.58056641 C-179.6702996 256.05021346 -179.68082343 246.51991747 -179.6966421 236.9895789 C-179.70984774 228.73058269 -179.71507691 220.47160479 -179.71444303 212.21259815 C-179.71419171 207.31412766 -179.71683452 202.41570784 -179.72762108 197.51724815 C-179.90297044 111.90508677 -179.90297044 111.90508677 -161.4855957 74.14526367 C-161.00348633 73.15268555 -160.52137695 72.16010742 -160.0246582 71.13745117 C-145.23347097 42.45398864 -117.86114978 20.55688792 -87.48168945 10.41479492 C-58.97587462 1.38686389 -29.7005827 -0.01046321 0 0 Z M-44.1730957 48.45776367 C-45.24994629 48.58892578 -46.32679688 48.72008789 -47.4362793 48.85522461 C-66.23238321 51.28509611 -83.72206726 56.97182794 -98.4855957 69.14526367 C-99.26290039 69.76014648 -100.04020508 70.3750293 -100.84106445 71.00854492 C-121.26001283 87.98333333 -129.28918634 114.2708773 -131.74131966 139.80848694 C-133.66504899 162.5039396 -133.63858 185.26364651 -133.61992121 208.02236557 C-133.61733363 212.187437 -133.61975248 216.35250658 -133.62130737 220.51757812 C-133.62311085 227.50317793 -133.62077122 234.48876706 -133.6159668 241.47436523 C-133.61052775 249.47349943 -133.61229171 257.4726081 -133.6177932 265.47174168 C-133.6223769 272.42293543 -133.62294953 279.37412165 -133.62035453 286.32531643 C-133.6188203 290.44048415 -133.61851719 294.55564 -133.62189102 298.67080688 C-133.84635801 333.8220399 -133.84635801 333.8220399 -131.1730957 368.83276367 C-130.97635254 370.44803955 -130.97635254 370.44803955 -130.77563477 372.09594727 C-128.34576326 390.89205117 -122.65903144 408.38173523 -110.4855957 423.14526367 C-109.87071289 423.92256836 -109.25583008 424.69987305 -108.62231445 425.50073242 C-91.64752605 445.91968079 -65.35998208 453.94885431 -39.82237244 456.40098763 C-17.12691978 458.32471696 5.63278714 458.29824797 28.3915062 458.27958918 C32.55657762 458.2770016 36.7216472 458.27942045 40.88671875 458.28097534 C47.87231856 458.28277882 54.85790769 458.28043919 61.84350586 458.27563477 C69.84264005 458.27019571 77.84174872 458.27195967 85.8408823 458.27746117 C92.79207606 458.28204487 99.74326227 458.2826175 106.69445705 458.2800225 C110.80962477 458.27848827 114.92478062 458.27818516 119.03994751 458.28155899 C154.19118053 458.50602597 154.19118053 458.50602597 189.2019043 455.83276367 C190.81718018 455.63602051 190.81718018 455.63602051 192.46508789 455.43530273 C211.2611918 453.00543123 228.75087585 447.31869941 243.5144043 435.14526367 C244.29170898 434.53038086 245.06901367 433.91549805 245.86987305 433.28198242 C266.28882142 416.30719402 274.31799494 390.01965005 276.77012825 364.48204041 C278.69385758 341.78658775 278.66738859 319.02688083 278.6487298 296.26816177 C278.64614223 292.10309035 278.64856108 287.93802077 278.65011597 283.77294922 C278.65191944 276.78734941 278.64957982 269.80176028 278.64477539 262.81616211 C278.63933634 254.81702792 278.6411003 246.81791924 278.6466018 238.81878567 C278.6511855 231.86759191 278.65175812 224.9164057 278.64916313 217.96521091 C278.64762889 213.8500432 278.64732579 209.73488734 278.65069962 205.61972046 C278.8751666 170.46848744 278.8751666 170.46848744 276.2019043 135.45776367 C276.07074219 134.38091309 275.93958008 133.3040625 275.80444336 132.19458008 C273.37457186 113.39847617 267.68784003 95.90879211 255.5144043 81.14526367 C254.89952148 80.36795898 254.28463867 79.5906543 253.65112305 78.78979492 C236.67633464 58.37084655 210.38879067 50.34167303 184.85118103 47.88953972 C162.15572837 45.96581039 139.39602146 45.99227938 116.6373024 46.01093817 C112.47223097 46.01352574 108.30716139 46.01110689 104.14208984 46.009552 C97.15649004 46.00774852 90.17090091 46.01008815 83.18530273 46.01489258 C75.18616854 46.02033163 67.18705987 46.01856767 59.18792629 46.01306617 C52.23673254 46.00848247 45.28554632 46.00790985 38.33435154 46.01050484 C34.21918382 46.01203908 30.10402797 46.01234218 25.98886108 46.00896835 C-9.16237193 45.78450137 -9.16237193 45.78450137 -44.1730957 48.45776367 Z " fill="#000000" transform="translate(179.485595703125,-0.145263671875)"/>
<path d="M0 0 C26.61178164 23.74946792 43.85490755 54.33705898 46.6875 90.3984375 C48.61337545 125.51533577 38.30502751 159.93449788 14.6875 186.3984375 C-8.77314929 212.17418543 -40.40544397 228.59375387 -75.57397461 230.52246094 C-112.21599349 231.78853901 -145.88316353 220.14217054 -172.875 195.125 C-197.32319902 171.90605742 -212.34474248 139.73458657 -213.515625 105.84765625 C-214.12335637 68.82636416 -201.77960265 35.83334849 -176.2175293 8.91796875 C-129.72603441 -38.84261346 -51.1060184 -42.53231136 0 0 Z M-145.89453125 44.56640625 C-162.65028065 64.19147622 -168.30324825 87.05194633 -166.3125 112.3984375 C-163.91224257 132.70061494 -151.65270045 152.30108015 -136.3125 165.3984375 C-116.12710485 180.55707255 -93.9213654 186.07140681 -68.93359375 183.1171875 C-49.32705259 179.98583428 -28.96371432 167.58170461 -17.08447266 151.76318359 C-2.63099797 131.31102569 3.03430802 108.73612179 -0.9375 83.8671875 C-5.02728799 63.45502623 -18.26333878 43.36090596 -35.44628906 31.75317383 C-71.67426195 8.30894828 -115.89327839 13.51582499 -145.89453125 44.56640625 Z " fill="#000000" transform="translate(335.3125,151.6015625)"/>
<path d="M0 0 C7.30079607 4.19010742 12.69008934 9.94883787 15.83984375 17.81640625 C17.82929278 25.90369314 17.81153419 35.05503315 13.83203125 42.5078125 C8.60415642 50.32662823 2.7198724 55.90347269 -6.5 58.5 C-17.90480021 59.579002 -25.97977315 58.42089708 -34.8125 51.125 C-40.65754609 45.67504649 -44.07501154 39.99202918 -44.8359375 31.94921875 C-44.95486755 20.49625458 -43.12435739 13.62177882 -35.29296875 5.22265625 C-25.80872785 -3.88965364 -11.83142912 -5.48358428 0 0 Z " fill="#000000" transform="translate(400.5,89.5)"/>
</svg>
